<?xml version="1.0" standalone="no"?>
<!DOCTYPE svg PUBLIC "-//W3C//DTD SVG 20010904//EN"
 "http://www.w3.org/TR/2001/REC-SVG-20010904/DTD/svg10.dtd">
<svg version="1.0" xmlns="http://www.w3.org/2000/svg"
 width="512.000000pt" height="512.000000pt" viewBox="0 0 512.000000 512.000000"
 preserveAspectRatio="xMidYMid meet">
<metadata>
Created by potrace 1.11, written by Peter Selinger 2001-2013
</metadata>
<g transform="translate(0.000000,512.000000) scale(0.100000,-0.100000)"
fill="#000000" stroke="none">
<path d="M2332 5109 c-201 -18 -463 -76 -648 -144 -149 -55 -405 -184 -530
-267 -307 -206 -574 -479 -766 -785 -73 -115 -183 -341 -233 -477 -117 -317
-171 -703 -147 -1039 26 -362 101 -646 257 -962 138 -281 260 -451 490 -680
229 -230 399 -352 680 -490 185 -91 300 -134 497 -185 244 -63 346 -75 628
-75 277 0 388 13 625 72 820 205 1489 808 1783 1608 50 136 104 351 128 510
14 92 19 177 19 365 0 280 -12 381 -75 627 -50 195 -94 313 -185 498 -138 281
-260 451 -490 680 -229 230 -399 352 -680 490 -181 89 -304 135 -479 180 -298
76 -583 100 -874 74z m1957 -1258 c18 -13 42 -42 52 -65 18 -39 19 -92 19
-1226 l0 -1186 -22 -44 c-17 -33 -35 -51 -68 -67 l-44 -23 -1667 0 -1666 0
-44 23 c-31 16 -51 36 -67 67 l-22 45 2 1201 3 1201 27 35 c56 74 -98 68 1778
65 l1685 -2 34 -24z"/>
<path d="M939 3757 c-18 -12 -39 -34 -46 -47 -40 -78 18 -170 107 -170 89 0
147 92 107 170 -16 33 -73 70 -107 70 -15 0 -42 -10 -61 -23z"/>
<path d="M1647 3750 c-56 -44 -56 -129 -1 -181 20 -19 37 -24 74 -24 37 0 54
5 74 24 83 78 37 201 -74 201 -32 0 -55 -6 -73 -20z"/>
<path d="M2647 2958 c-48 -166 -356 -1208 -363 -1230 -5 -16 4 -18 90 -18 53
0 96 2 96 5 0 5 371 1267 396 1348 5 15 -4 17 -89 17 l-94 0 -36 -122z"/>
<path d="M1680 2655 l-435 -204 -3 -83 -3 -83 441 -205 c243 -113 446 -206
451 -208 5 -2 9 38 9 95 l0 98 -148 64 c-396 171 -533 234 -525 242 5 5 157
73 338 152 l330 145 3 96 c2 73 0 96 -10 95 -7 -1 -209 -93 -448 -204z"/>
<path d="M2982 2764 l3 -97 342 -147 c188 -80 345 -149 348 -151 3 -3 -152
-73 -345 -155 l-350 -149 0 -97 c0 -54 2 -98 4 -98 2 0 203 91 447 203 l444
203 3 90 2 89 -442 203 c-244 111 -447 202 -451 202 -4 0 -6 -43 -5 -96z"/>
</g>
</svg>
