<?xml version="1.0" standalone="no"?>
<!DOCTYPE svg PUBLIC "-//W3C//DTD SVG 20010904//EN"
 "http://www.w3.org/TR/2001/REC-SVG-20010904/DTD/svg10.dtd">
<svg version="1.0" xmlns="http://www.w3.org/2000/svg"
 width="1078.000000pt" height="1078.000000pt" viewBox="0 0 1078.000000 1078.000000"
 preserveAspectRatio="xMidYMid meet">
<metadata>
Created by potrace 1.11, written by Peter Selinger 2001-2013
</metadata>
<g transform="translate(0.000000,1078.000000) scale(0.100000,-0.100000)"
fill="#000000" stroke="none">
<path d="M2247 10604 c-1 -1 -50 -4 -109 -8 -59 -3 -113 -8 -120 -11 -7 -2
-31 -6 -53 -9 -66 -8 -204 -43 -295 -74 -87 -29 -275 -113 -320 -143 -14 -8
-59 -38 -100 -64 -194 -125 -343 -269 -518 -500 -4 -5 -26 -40 -49 -76 -116
-184 -205 -413 -249 -635 l-24 -124 0 -3358 c1 -3614 -2 -3382 50 -3584 39
-151 82 -263 158 -407 40 -77 135 -229 151 -241 4 -3 17 -20 30 -38 42 -60
150 -174 242 -255 266 -233 553 -369 936 -442 10 -2 26 -4 35 -4 16 -1 18 -24
20 -292 l3 -291 279 278 c154 153 287 279 295 281 9 1 137 -119 299 -280 155
-155 282 -275 283 -267 0 8 1 133 2 278 0 144 3 263 6 263 3 1 1239 3 2746 4
1507 2 2751 6 2765 9 14 3 48 8 75 12 28 3 79 12 115 20 36 9 76 18 88 20 35
7 190 59 247 84 565 241 977 731 1109 1322 l26 116 -3 3449 c-1 1896 -6 3462
-10 3478 -4 17 -13 48 -18 70 -19 75 -52 177 -79 245 -32 80 -104 223 -139
276 -17 25 -31 47 -31 50 0 5 -86 121 -131 178 -28 35 -170 178 -219 221 -117
102 -315 225 -465 289 -156 66 -227 89 -375 120 -111 23 -126 25 -235 32 -78
5 -6412 13 -6418 8z m3740 -1649 c1 -291 2 -551 2 -576 l1 -46 830 0 c457 0
833 -3 837 -6 7 -8 7 -802 0 -814 -4 -6 -319 -9 -822 -9 -449 1 -823 -1 -831
-4 -14 -5 -15 -174 -16 -1583 0 -1356 -2 -1577 -14 -1578 -62 -5 -1078 -3
-1086 2 -7 4 -11 530 -12 1584 l-1 1578 -835 1 -835 1 0 413 c0 271 3 412 10
413 5 0 381 1 835 2 l825 2 2 540 c1 297 2 556 2 575 l1 35 553 0 552 0 2
-530z m4114 -5531 c-1 -489 -3 -902 -5 -919 -2 -16 -7 -57 -11 -90 -5 -52 -13
-92 -31 -167 -2 -10 -6 -28 -9 -40 -27 -125 -138 -371 -230 -507 -229 -341
-574 -592 -965 -701 -91 -26 -103 -28 -160 -36 -25 -3 -53 -8 -63 -10 -10 -2
-48 -6 -85 -10 -92 -9 -5321 -9 -5330 0 -4 4 -7 197 -7 429 l0 422 115 5 115
5 0 30 0 30 -828 1 -827 2 -6 -23 c-3 -13 -3 -29 1 -34 4 -7 54 -11 131 -11
l124 0 0 -426 0 -426 -57 7 c-425 53 -777 391 -851 815 -9 51 -8 288 1 335 18
96 30 131 84 253 61 140 204 304 343 395 66 43 170 97 186 97 3 0 20 7 37 15
18 8 75 23 127 34 93 19 156 20 3290 21 1757 0 3218 3 3245 5 80 7 165 19 215
31 14 3 36 8 50 10 91 16 281 83 399 141 91 44 286 166 341 212 14 12 45 38
69 59 183 154 342 363 457 597 60 124 124 294 124 331 0 10 2 15 5 12 4 -3 6
-406 6 -894z"/>
</g>
</svg>
